# xmcd CD database file
#
# Track frame offsets:
#	150
#	16065
#	31432
#	48872
#	59177
#	74617
#	90917
#	104687
#	115465
#	135077
#	148410
#	165427
#
# Disc length: 2417 seconds
#
# Revision: 0
# Processed by: cddbd v1.5.2PL0 Copyright (c) Steve Scherf et al.
# Submitted via: CDex 1.51
#
DISCID=a7096f0c
DTITLE=Buddy Werner - Sperrstunde
DYEAR=1995
DGENRE=Country
TTITLE0=Truck Driver Man
TTITLE1=Der Alte Trucker
TTITLE2=Harley Blues
TTITLE3=Country Ist
TTITLE4=Mein Stiefel
TTITLE5=Sandler
TTITLE6=Die Elbbrücke
TTITLE7=Ich Träum von Country Musik
TTITLE8=Country Lady
TTITLE9=Take it Easy
TTITLE10=Sperrstunde
TTITLE11=Geisterreiter
EXTD=YEAR: 1995
EXTT0=
EXTT1=
EXTT2=
EXTT3=
EXTT4=
EXTT5=
EXTT6=
EXTT7=
EXTT8=
EXTT9=
EXTT10=
EXTT11=
PLAYORDER=
